Coordinates
version=1
nRows=7
nColumns=40
inDegrees=yes

Units are S.I. units (second, meters, Newtons, ...)
Angles are in degrees.

endheader
time	pelvis_tilt	pelvis_list	pelvis_rotation	pelvis_tx	pelvis_ty	pelvis_tz	hip_flexion_r	hip_adduction_r	hip_rotation_r	knee_angle_r	knee_angle_r_beta	ankle_angle_r	subtalar_angle_r	mtp_angle_r	hip_flexion_l	hip_adduction_l	hip_rotation_l	knee_angle_l	knee_angle_l_beta	ankle_angle_l	subtalar_angle_l	mtp_angle_l	lumbar_extension	lumbar_bending	lumbar_rotation	arm_flex_r	arm_add_r	arm_rot_r	elbow_flex_r	pro_sup_r	wrist_flex_r	wrist_dev_r	arm_flex_l	arm_add_l	arm_rot_l	elbow_flex_l	pro_sup_l	wrist_flex_l	wrist_dev_l
     10.50000000	     -0.98259973	     20.89026460	     88.84724284	      0.41878952	      0.98984719	     -1.04255955	     -3.58637313	     12.60506641	      0.38009295	     15.48242330	      0.27021926	      5.90551904	      0.00000000	      0.00000000	    -26.04589484	      6.63333931	    -12.86653769	     29.53435999	      0.51547182	      8.46513824	      0.00000000	      0.00000000	    -37.15578504	      0.75705125	     -9.19655487	      6.69611281	    -14.84944145	     10.26958995	    139.01769676	     87.23588533	      0.00000000	      0.00000000	      7.56464793	    -21.24943629	      7.28723201	    141.20536697	     83.52789160	      0.00000000	      0.00000000
     10.51000000	      0.15535602	     21.64808245	     89.03149061	      0.41678597	      0.98867977	     -1.04297648	     -4.77390900	     13.99310076	      0.77547214	     16.32984087	      0.28500949	      7.43586105	      0.00000000	      0.00000000	    -24.83822844	      3.76030721	    -14.67171033	     34.69184603	      0.60548694	      6.18285349	      0.00000000	      0.00000000	    -37.78330806	      1.81274852	     -8.25559549	      6.33271483	    -14.25433870	      9.48646209	    139.07532285	     87.24980836	      0.00000000	      0.00000000	      7.53412300	    -20.16495543	      6.92296565	    141.01402067	     83.68204814	      0.00000000	      0.00000000
     10.52000000	      1.06632707	     22.20680929	     89.09500413	      0.41504488	      0.98736243	     -1.04244273	     -5.34765684	     15.08020004	      1.45468848	     17.90691741	      0.31253467	      9.18345465	      0.00000000	      0.00000000	    -23.30926162	      1.13602554	    -15.96503097	     39.82569917	      0.69508958	      3.75349719	      0.00000000	      0.00000000	    -38.32361402	      2.52575026	     -7.27504918	      6.14768152	    -13.70369074	      8.85958603	    139.03922108	     87.23998275	      0.00000000	      0.00000000	      7.55090624	    -19.17463251	      6.56356243	    140.87025732	     83.87030371	      0.00000000	      0.00000000
     10.53000000	      1.49901252	     23.08858283	     89.04415926	      0.41354104	      0.98688518	     -1.04141690	     -6.15446411	     15.51734670	      1.86773631	     19.70604419	      0.34393535	     10.97199491	      0.00000000	      0.00000000	    -22.28760257	     -0.74124070	    -16.61521643	     44.22473261	      0.77186719	      0.65232221	      0.00000000	      0.00000000	    -39.27980134	      2.62685053	     -6.37514317	      6.16051186	    -13.19362407	      8.42520848	    139.00251271	     87.20153764	      0.00000000	      0.00000000	      7.57732424	    -18.25254347	      6.16040722	    140.82609620	     83.97104967	      0.00000000	      0.00000000
     10.54000000	      1.58533340	     23.12698799	     88.73920417	      0.41309803	      0.98532696	     -1.03975160	     -5.70091784	     15.50532622	      1.96256403	     22.08078317	      0.38538237	     12.62309232	      0.00000000	      0.00000000	    -20.11288390	     -2.14029590	    -16.95941074	     48.77452005	      0.85127597	     -1.93261127	      0.00000000	      0.00000000	    -39.45764464	      2.13299085	     -5.34028757	      6.08040474	    -12.59869810	      8.08224869	    138.85985420	     87.24029187	      0.00000000	      0.00000000	      7.56098712	    -17.49803065	      5.72006978	    140.72945544	     84.25398123	      0.00000000	      0.00000000
     10.55000000	      1.87213031	     23.87862037	     88.47982867	      0.41323786	      0.98527546	     -1.03902896	     -6.93225193	     15.69995520	      2.01495698	     22.81471664	      0.39819192	     13.69667657	      0.00000000	      0.00000000	    -19.03641594	     -3.61207113	    -16.76849341	     52.61798178	      0.91835703	     -3.98669623	      0.00000000	      0.00000000	    -40.27701178	      1.76022574	     -4.37709130	      6.03703648	    -12.04951365	      7.94368309	    138.71411305	     87.28727373	      0.00000000	      0.00000000	      7.35086873	    -16.83678799	      5.01137139	    140.75534220	     84.29386723	      0.00000000	      0.00000000
     10.56000000	      2.12892264	     24.75995249	     87.99166210	      0.41429825	      0.98572037	     -1.03852141	     -8.61010718	     15.76132524	      1.86534084	     23.08565591	      0.40292071	     14.36426642	      0.00000000	      0.00000000	    -18.34106362	     -4.82672919	    -16.37690549	     55.95309234	      0.97656569	     -4.74291802	      0.00000000	      0.00000000	    -41.20922852	      1.12089278	     -3.28729781	      5.97105929	    -11.49061944	      7.87499853	    138.62997125	     87.32849840	      0.00000000	      0.00000000	      7.04118430	    -16.31286444	      4.26656943	    140.81481382	     84.29148441	      0.00000000	      0.00000000
